<svg width="25" height="25" viewBox="0 0 25 25" fill="none" xmlns="http://www.w3.org/2000/svg">
<path fill-rule="evenodd" clip-rule="evenodd" d="M19.7916 4.1665C21.5175 4.1665 22.9166 5.56561 22.9166 7.2915V17.7082C22.9166 19.4341 21.5175 20.8332 19.7916 20.8332H5.20825C3.48236 20.8332 2.08325 19.4341 2.08325 17.7082V7.2915C2.08325 5.56561 3.48236 4.1665 5.20825 4.1665H19.7916ZM20.8333 7.63317L13.1859 14.3254C12.8259 14.6404 12.3031 14.6667 11.916 14.4042L11.814 14.3254L4.16659 7.63421V17.7082C4.16659 18.2835 4.63296 18.7498 5.20825 18.7498H19.7916C20.3669 18.7498 20.8333 18.2835 20.8333 17.7082V7.63317ZM19.2499 6.24984H5.74784L12.4999 12.1574L19.2499 6.24984Z" fill="#F15A24"/>
</svg>
