<svg width="25" height="25" viewBox="0 0 25 25" fill="none" xmlns="http://www.w3.org/2000/svg">
<g clip-path="url(#clip0_36_139)">
<path d="M24.5045 12.4302C24.5045 5.70191 19.019 0.247559 12.2523 0.247559C5.48552 0.247559 0 5.70191 0 12.4302C0 18.5108 4.48045 23.5509 10.3378 24.4649V15.9518H7.22692V12.4302H10.3378V9.74622C10.3378 6.69294 12.1671 5.00641 14.9657 5.00641C16.3058 5.00641 17.7084 5.24435 17.7084 5.24435V8.24242H16.1634C14.6415 8.24242 14.1667 9.18158 14.1667 10.146V12.4302H17.5648L17.0216 15.9518H14.1667V24.4649C20.0241 23.5509 24.5045 18.5108 24.5045 12.4302Z" fill="#F15A24"/>
</g>
<defs>
<clipPath id="clip0_36_139">
<rect width="24.5045" height="24.3653" fill="white" transform="translate(0 0.247559)"/>
</clipPath>
</defs>
</svg>
