<svg width="26" height="25" viewBox="0 0 26 25" fill="none" xmlns="http://www.w3.org/2000/svg">
<g clip-path="url(#clip0_36_141)">
<path d="M12.991 2.44139C16.2647 2.44139 16.6524 2.45566 17.9398 2.51277C19.1363 2.56512 19.7824 2.76499 20.2132 2.93155C20.7827 3.15046 21.1943 3.41695 21.6203 3.84049C22.051 4.26879 22.3142 4.67329 22.5344 5.23959C22.7019 5.66789 22.9029 6.31509 22.9556 7.50004C23.013 8.78493 23.0274 9.1704 23.0274 12.4207C23.0274 15.6757 23.013 16.0612 22.9556 17.3413C22.9029 18.5311 22.7019 19.1735 22.5344 19.6018C22.3142 20.1681 22.0462 20.5774 21.6203 21.0009C21.1895 21.4292 20.7827 21.6909 20.2132 21.9098C19.7824 22.0764 19.1315 22.2763 17.9398 22.3286C16.6476 22.3857 16.2599 22.4 12.991 22.4C9.71738 22.4 9.32971 22.3857 8.04227 22.3286C6.84576 22.2763 6.19964 22.0764 5.7689 21.9098C5.19936 21.6909 4.78776 21.4244 4.3618 21.0009C3.93106 20.5726 3.66783 20.1681 3.44767 19.6018C3.28016 19.1735 3.07914 18.5263 3.0265 17.3413C2.96907 16.0565 2.95471 15.671 2.95471 12.4207C2.95471 9.16564 2.96907 8.78017 3.0265 7.50004C3.07914 6.31033 3.28016 5.66789 3.44767 5.23959C3.66783 4.67329 3.93585 4.26403 4.3618 3.84049C4.79255 3.41219 5.19936 3.15046 5.7689 2.93155C6.19964 2.76499 6.85055 2.56512 8.04227 2.51277C9.32971 2.45566 9.71738 2.44139 12.991 2.44139ZM12.991 0.247559C9.66474 0.247559 9.24835 0.261835 7.94176 0.318941C6.63996 0.376047 5.74497 0.585437 4.96963 0.885244C4.16079 1.19933 3.47639 1.61335 2.79677 2.29386C2.11236 2.96962 1.69598 3.65014 1.3801 4.44962C1.07858 5.22531 0.867993 6.11046 0.81056 7.40487C0.753128 8.70879 0.73877 9.12281 0.73877 12.4302C0.73877 15.7376 0.753128 16.1516 0.81056 17.4508C0.867993 18.7452 1.07858 19.6351 1.3801 20.406C1.69598 21.2103 2.11236 21.8908 2.79677 22.5666C3.47639 23.2423 4.16079 23.6611 4.96484 23.9704C5.74497 24.2702 6.63517 24.4796 7.93698 24.5367C9.24357 24.5938 9.65995 24.6081 12.9863 24.6081C16.3125 24.6081 16.7289 24.5938 18.0355 24.5367C19.3373 24.4796 20.2323 24.2702 21.0077 23.9704C21.8117 23.6611 22.4961 23.2423 23.1757 22.5666C23.8554 21.8908 24.2765 21.2103 24.5876 20.4108C24.8891 19.6351 25.0997 18.75 25.1572 17.4556C25.2146 16.1564 25.2289 15.7424 25.2289 12.435C25.2289 9.12757 25.2146 8.71355 25.1572 7.41438C25.0997 6.11998 24.8891 5.23007 24.5876 4.45914C24.2861 3.65013 23.8697 2.96962 23.1853 2.29386C22.5057 1.61811 21.8213 1.19933 21.0172 0.890003C20.2371 0.590196 19.3469 0.380806 18.0451 0.3237C16.7337 0.261835 16.3173 0.247559 12.991 0.247559Z" fill="#F15A24"/>
<path d="M12.9912 6.17236C9.51649 6.17236 6.69751 8.97532 6.69751 12.4302C6.69751 15.8852 9.51649 18.6881 12.9912 18.6881C16.4658 18.6881 19.2848 15.8852 19.2848 12.4302C19.2848 8.97532 16.4658 6.17236 12.9912 6.17236ZM12.9912 16.4895C10.7369 16.4895 8.90866 14.6717 8.90866 12.4302C8.90866 10.1888 10.7369 8.37095 12.9912 8.37095C15.2454 8.37095 17.0736 10.1888 17.0736 12.4302C17.0736 14.6717 15.2454 16.4895 12.9912 16.4895Z" fill="#F15A24"/>
<path d="M21.0028 5.92484C21.0028 6.73384 20.3424 7.3858 19.5335 7.3858C18.7199 7.3858 18.0642 6.72908 18.0642 5.92484C18.0642 5.11583 18.7247 4.46387 19.5335 4.46387C20.3424 4.46387 21.0028 5.12059 21.0028 5.92484Z" fill="#F15A24"/>
</g>
<defs>
<clipPath id="clip0_36_141">
<rect width="24.5045" height="24.3653" fill="white" transform="translate(0.73877 0.247559)"/>
</clipPath>
</defs>
</svg>
