<svg width="80" height="80" viewBox="0 0 80 80" fill="none" xmlns="http://www.w3.org/2000/svg">
<path d="M39.9082 0C61.9468 0 79.8164 17.9069 79.8164 39.9972C79.8164 62.0845 61.9439 80 39.9082 80C17.8667 80 0 62.0845 0 39.9972C0 17.9098 17.8667 0 39.9082 0ZM77.2886 40C77.2886 19.2554 60.5036 2.44745 39.8164 2.44745C19.1206 2.44745 2.34702 19.2525 2.34702 40C2.34702 60.7417 19.1206 77.5583 39.8164 77.5583C60.5064 77.5583 77.2886 60.7417 77.2886 40Z" fill="#EA4817"/>
<path d="M39.931 75.2227C59.3396 75.2227 75.0734 59.4517 75.0734 39.9971C75.0734 20.5425 59.3396 4.77148 39.931 4.77148C20.5224 4.77148 4.78857 20.5425 4.78857 39.9971C4.78857 59.4517 20.5224 75.2227 39.931 75.2227Z" fill="#EA4817"/>
<path d="M55.7495 55.0347V30.3621L39.9084 20.0874L39.9027 20.0731L24.0874 30.3363V55.006L18.9229 51.5601L18.9774 27.4527L39.8195 13.7205L40.0174 13.7521L60.8596 27.4757L60.9198 51.5945L55.7495 55.0347Z" fill="white"/>
<path d="M36.4796 29.2833V57.9556L39.9285 60.3399L39.9371 60.3485L43.3572 57.9786V29.312L49.6408 33.656V58.8651L39.9371 65.2348L39.9285 65.232L30.196 58.8393V33.6303L36.4796 29.2833Z" fill="white"/>
</svg>
