<svg width="80" height="80" viewBox="0 0 80 80" fill="none" xmlns="http://www.w3.org/2000/svg">
<path d="M39.9112 0C61.9425 0 79.8138 17.9086 79.8138 39.9972C79.8138 62.08 61.9453 80 39.9112 80C17.8714 80 0 62.08 0 39.9943C0.00286492 17.9057 17.8714 0 39.9112 0ZM77.2841 39.9943C77.2841 19.2551 60.5071 2.44945 39.8167 2.44945C19.1233 2.44945 2.34921 19.2551 2.34921 39.9943C2.34921 60.7363 19.1205 77.5477 39.8167 77.5477C60.5071 77.5505 77.2841 60.7392 77.2841 39.9943Z" fill="#E59420"/>
<path d="M39.9312 75.2184C59.3376 75.2184 75.0695 59.4479 75.0695 39.9941C75.0695 20.5403 59.3376 4.7699 39.9312 4.7699C20.5249 4.7699 4.79297 20.5403 4.79297 39.9941C4.79297 59.4479 20.5249 75.2184 39.9312 75.2184Z" fill="#E59420"/>
<path d="M55.754 55.0295V30.3625L39.911 20.0889L39.9053 20.0716L24.0909 30.3338V55.0008L18.9226 51.5572L18.977 27.4459L39.8165 13.7202L40.0199 13.7545L60.8593 27.4775L60.9166 51.5886L55.754 55.0295Z" fill="white"/>
<path d="M36.4758 29.2795V57.9516L39.9308 60.3381L39.9394 60.3438L43.3602 57.9774V29.3081L49.6372 33.6514V58.8626L39.9394 65.2313L39.9308 65.2228L30.1987 58.8368V33.6284L36.4758 29.2795Z" fill="white"/>
</svg>
