<svg width="80" height="80" viewBox="0 0 80 80" fill="none" xmlns="http://www.w3.org/2000/svg">
<path d="M73.9938 42.6678C73.9938 42.4655 74.0227 42.2689 74.0342 42.0897C74.0863 41.4596 74.0747 40.9336 74.092 40.5752C74.1094 40.2168 74.092 39.9971 74.092 39.9971C74.092 39.9971 74.092 39.789 74.092 39.419C74.092 39.0491 74.092 38.5346 74.0342 37.9045C74.0342 37.7253 74.0342 37.5287 73.9938 37.3264C74.5198 37.2166 75.0806 37.0894 75.6471 36.9622C77.8264 36.4708 79.9942 35.8928 79.9942 35.8928L79.8497 34.7366C79.7745 34.0314 79.6011 33.1007 79.4335 32.1757C79.2658 31.2508 79.0288 30.3317 78.8554 29.6438L78.5317 28.4876C78.5317 28.4876 76.3292 28.7766 74.1209 29.1524L72.4503 29.4472C72.3867 29.2564 72.3289 29.0715 72.2595 28.8691C72.0746 28.2911 71.8722 27.7881 71.7393 27.4471C71.6063 27.106 71.5254 26.9095 71.5254 26.9095C71.5254 26.9095 71.456 26.7129 71.2999 26.3834C71.1438 26.0539 70.9415 25.5683 70.6698 25.0076L70.4039 24.4873L71.7913 23.5162C73.6065 22.227 75.3927 20.857 75.3927 20.857L74.8146 19.8338C74.4794 19.2095 73.9591 18.4233 73.4504 17.6313C72.3983 16.059 71.2075 14.6022 71.2075 14.6022C71.2075 14.6022 69.2767 15.7179 67.3806 16.9145L65.9585 17.8279L65.5712 17.3885C65.1723 16.903 64.785 16.5503 64.5422 16.2786L64.1434 15.8624L63.7271 15.4635C63.4554 15.2208 63.1028 14.8334 62.6172 14.4346L62.1779 14.0473C62.4727 13.5964 62.756 13.1108 63.0913 12.6252C64.2821 10.7291 65.4036 8.79832 65.4036 8.79832C65.4036 8.79832 63.9352 7.60748 62.3687 6.55538C61.5767 6.04668 60.7905 5.52641 60.1662 5.18535L59.143 4.60727C59.143 4.60727 57.7729 6.38774 56.4838 8.20868C56.1486 8.67692 55.8133 9.15095 55.5127 9.59028L54.9924 9.32437C54.4143 9.05268 53.9519 8.85035 53.6166 8.69427C53.4432 8.61022 53.2657 8.53497 53.0848 8.46882L52.5529 8.25493C52.2118 8.12197 51.7321 7.91965 51.1309 7.73466L50.5528 7.5439C50.6511 7.01207 50.7493 6.44555 50.8476 5.87326C51.2233 3.66501 51.5124 1.46253 51.5124 1.46253L50.3562 1.13881C49.6683 0.953827 48.7492 0.745719 47.8243 0.560735C46.8993 0.37575 45.9686 0.219669 45.2634 0.144519L44.1072 0C44.1072 0 43.5291 2.17357 43.0378 4.34714C42.9106 4.92521 42.7834 5.47439 42.6736 6.00044L42.0955 5.95997C41.4654 5.90794 40.9394 5.91951 40.5752 5.90216H39.9971H39.419C39.0548 5.90216 38.5346 5.90216 37.9045 5.95997L37.3264 6.00044C37.2166 5.47439 37.0894 4.91365 36.9622 4.34714C36.4708 2.17357 35.8928 0 35.8928 0L34.7366 0.144519C34.0314 0.219669 33.1064 0.393093 32.1757 0.560735C31.245 0.728377 30.3259 0.965388 29.6438 1.13881L28.4876 1.46253C28.4876 1.46253 28.7766 3.66501 29.1524 5.87326C29.2507 6.45133 29.3489 7.02941 29.4472 7.5439L28.8691 7.73466C28.2911 7.91965 27.7881 8.12197 27.4471 8.25493L26.9152 8.46882C26.7343 8.53497 26.5568 8.61022 26.3834 8.69427C26.0539 8.85035 25.5683 9.05268 25.0076 9.32437L24.4873 9.59028C24.1809 9.15095 23.8514 8.67692 23.5161 8.20868C22.227 6.38774 20.857 4.60727 20.857 4.60727L19.8338 5.18535C19.2095 5.52641 18.4233 6.04668 17.6313 6.55538C16.059 7.60748 14.6022 8.79832 14.6022 8.79832C14.6022 8.79832 15.7179 10.7291 16.9145 12.6252C17.2151 13.1108 17.5273 13.5964 17.8221 14.0473L17.3828 14.4346C16.9029 14.8334 16.5445 15.2208 16.2728 15.4635L15.8566 15.8624L15.4578 16.2786C15.215 16.5503 14.8277 16.903 14.4288 17.3885L14.0415 17.8279L12.6194 16.9145C10.7233 15.7237 8.79254 14.6022 8.79254 14.6022C8.79254 14.6022 7.60171 16.059 6.54961 17.6313C6.0409 18.4233 5.52063 19.2095 5.18535 19.8338L4.60727 20.857C4.60727 20.857 6.38774 22.227 8.20868 23.5162C8.67692 23.8514 9.15095 24.1809 9.59028 24.4873C9.50357 24.6607 9.4053 24.8457 9.33015 25.0076C9.05268 25.5857 8.85035 26.0539 8.69426 26.3834C8.53818 26.7129 8.46881 26.9095 8.46881 26.9095C8.46881 26.9095 8.39367 27.106 8.25493 27.4471C8.11619 27.7881 7.91964 28.2679 7.73466 28.8691C7.67107 29.0426 7.60171 29.2275 7.5439 29.4472L5.87325 29.1524C3.665 28.7766 1.46253 28.4876 1.46253 28.4876C1.46253 28.4876 1.32958 28.9443 1.13881 29.6438C0.948046 30.3432 0.745719 31.2508 0.560735 32.1757C0.37575 33.1007 0.219669 34.0314 0.144519 34.7366L0 35.8928C0 35.8928 2.17356 36.4708 4.34713 36.9622C4.9252 37.0894 5.47438 37.2166 6.00043 37.3264C6.00043 37.5287 6.00043 37.7253 5.95997 37.9045C5.90794 38.5346 5.9195 39.0606 5.90215 39.419C5.88481 39.7774 5.90215 39.9971 5.90215 39.9971C5.90215 39.9971 5.90215 40.2052 5.90215 40.5752C5.90215 40.9451 5.90216 41.4596 5.95997 42.0897C5.95997 42.2689 5.95996 42.4655 6.00043 42.6678C5.47438 42.7776 4.91364 42.9048 4.34713 43.032C2.17356 43.5234 0 44.1015 0 44.1015L0.144519 45.2576C0.219669 45.9629 0.393093 46.8936 0.560735 47.8185C0.728377 48.7434 0.965388 49.6625 1.13881 50.3505C1.31223 51.0384 1.46253 51.5066 1.46253 51.5066C1.46253 51.5066 3.665 51.2176 5.87325 50.8418L7.5439 50.547C7.60171 50.7378 7.67107 50.9227 7.73466 51.1251C7.91964 51.7032 8.12197 52.2061 8.25493 52.5471C8.38789 52.8882 8.46881 53.0848 8.46881 53.0848C8.46881 53.0848 8.53818 53.2813 8.69426 53.6108C8.85035 53.9403 9.05268 54.4259 9.33015 54.9866C9.4053 55.1485 9.50357 55.3335 9.59028 55.5069C9.15095 55.8133 8.67692 56.1428 8.20868 56.4781C6.38774 57.7672 4.60727 59.1372 4.60727 59.1372L5.18535 60.1604C5.52063 60.7847 6.0409 61.5709 6.54961 62.3629C7.60171 63.9352 8.79254 65.392 8.79254 65.3978C8.79254 65.4036 10.7233 64.2763 12.6194 63.0855L14.0415 62.1721L14.4288 62.6115C14.8277 63.097 15.215 63.4497 15.4578 63.7214L15.8566 64.1376L16.2728 64.5365C16.5445 64.7792 16.9029 65.1666 17.3828 65.5654L17.8221 65.9527C17.5273 66.4036 17.2151 66.8892 16.9145 67.3748C15.7179 69.2709 14.6022 71.2017 14.6022 71.2017C14.6022 71.2017 16.0647 72.3925 17.6313 73.4446C18.4233 73.9533 19.2095 74.4736 19.8338 74.8147L20.857 75.3927C20.857 75.3927 22.227 73.6122 23.5161 71.7913C23.8514 71.3231 24.1809 70.849 24.4873 70.4097L25.0076 70.6698C25.5857 70.9473 26.0539 71.1496 26.3834 71.3057C26.5568 71.3898 26.7343 71.465 26.9152 71.5312L27.4471 71.7451C27.7881 71.878 28.2679 72.0803 28.8691 72.2653C29.0426 72.3347 29.2275 72.3925 29.4472 72.4561C29.3489 72.9879 29.2507 73.5544 29.1524 74.1267C28.7766 76.335 28.4876 78.5375 28.4876 78.5375L29.6438 78.8612C30.3317 79.0462 31.2508 79.2543 32.1757 79.4393C33.1006 79.6242 34.0314 79.7803 34.7366 79.8497L35.8928 80C35.8928 80 36.4708 77.8264 36.9622 75.6528C37.0894 75.0748 37.2166 74.5256 37.3264 73.9996L37.9045 74.04C38.5346 74.0921 39.0606 74.0805 39.419 74.0978H39.9971H40.5752C40.9451 74.0978 41.4654 74.0978 42.0955 74.04L42.6736 73.9996C42.7834 74.5256 42.9106 75.0863 43.0378 75.6528C43.5291 77.8264 44.1072 80 44.1072 80L45.2634 79.8497C45.9686 79.7803 46.8993 79.6069 47.8243 79.4393C48.7492 79.2716 49.6683 79.0346 50.3562 78.8612L51.5124 78.5375C51.5124 78.5375 51.2233 76.335 50.8476 74.1267C50.7493 73.5487 50.6511 72.9706 50.5528 72.4561C50.7435 72.3925 50.9285 72.3347 51.1309 72.2653C51.7089 72.0803 52.2118 71.878 52.5529 71.7451L53.0848 71.5312C53.2657 71.465 53.4432 71.3898 53.6166 71.3057C53.9519 71.1496 54.4317 70.9473 54.9924 70.6698L55.5127 70.4097C55.8133 70.849 56.1486 71.3231 56.4838 71.7913C57.7729 73.6122 59.143 75.3927 59.143 75.3927L60.1662 74.8147C60.7905 74.4736 61.5767 73.9533 62.3687 73.4446C63.941 72.3925 65.4036 71.2017 65.4036 71.2017C65.4036 71.2017 64.2821 69.2709 63.0913 67.3748C62.7849 66.8892 62.4727 66.4036 62.1779 65.9527L62.6172 65.5654C63.1028 65.1666 63.4554 64.7792 63.7271 64.5365L64.1434 64.1376L64.5422 63.7214C64.785 63.4497 65.1723 63.097 65.5712 62.6115L65.9585 62.1721L67.3806 63.0855C69.2767 64.2763 71.2075 65.3978 71.2075 65.3978C71.2075 65.3978 72.3983 63.9352 73.4504 62.3629C73.9591 61.5709 74.4794 60.7847 74.8146 60.1604L75.3927 59.1372C75.3927 59.1372 73.6065 57.7672 71.7913 56.4781L70.4039 55.5069L70.6698 54.9866C70.9415 54.4085 71.1438 53.9403 71.2999 53.6108C71.456 53.2813 71.5254 53.0848 71.5254 53.0848C71.5254 53.0848 71.6063 52.8882 71.7393 52.5471C71.8722 52.2061 72.0746 51.7263 72.2595 51.1251C72.3289 50.9517 72.3867 50.7667 72.4503 50.547L74.1209 50.8418C76.3292 51.2176 78.5317 51.5066 78.5317 51.5066C78.5317 51.5066 78.6646 51.0499 78.8554 50.3505C79.0462 49.651 79.2543 48.7434 79.4335 47.8185C79.6127 46.8936 79.7745 45.9629 79.8497 45.2576L79.9942 44.1015C79.9942 44.1015 77.8264 43.5234 75.6471 43.032C75.0806 42.8875 74.5198 42.7776 73.9938 42.6678ZM66.8892 51.6569C66.7563 51.9459 66.5828 52.3564 66.3516 52.842C65.7661 54.0224 65.1077 55.1654 64.3804 56.2642C63.6422 57.3585 62.8331 58.4032 61.9582 59.3916C61.6172 59.8136 61.2819 60.1142 61.0738 60.3512L60.7327 60.7096L60.3743 61.0507C60.1373 61.2588 59.8367 61.594 59.4205 61.9351C58.4288 62.8085 57.3823 63.6176 56.2873 64.3573C55.1877 65.0834 54.0449 65.7417 52.8651 66.3285C52.3795 66.5597 51.9691 66.7331 51.68 66.8719C51.391 67.0106 51.2291 67.0626 51.2291 67.0626L50.7724 67.2418C50.4776 67.3575 50.0614 67.5309 49.5469 67.6927C48.3044 68.1251 47.0335 68.4709 45.7432 68.7275C44.4488 68.9778 43.1396 69.1438 41.8238 69.2246C41.2862 69.2709 40.8295 69.2593 40.5174 69.2767H40.0202H39.5231C39.2109 69.2767 38.7542 69.2767 38.2224 69.2246C36.9046 69.1442 35.5935 68.9781 34.2973 68.7275C33.007 68.4709 31.736 68.1251 30.4935 67.6927C29.979 67.5309 29.5628 67.3575 29.268 67.2418L28.8113 67.0626C28.8113 67.0626 28.6437 67.0048 28.3604 66.8719C28.0772 66.7389 27.661 66.5597 27.1754 66.3285C25.9956 65.7417 24.8527 65.0834 23.7532 64.3573C22.6589 63.6191 21.6141 62.81 20.6258 61.9351C20.2038 61.594 19.9032 61.2588 19.6662 61.0507L19.3077 60.7096L18.9667 60.3512C18.7586 60.1142 18.4233 59.8136 18.0822 59.3916C17.2073 58.4032 16.3982 57.3585 15.6601 56.2642C14.9327 55.1654 14.2744 54.0224 13.6888 52.842C13.4576 52.3564 13.2842 51.9459 13.1512 51.6569C13.0774 51.5104 13.0118 51.3598 12.9547 51.206C12.9547 51.206 12.8853 51.0384 12.7755 50.7435C12.6656 50.4487 12.4864 50.0383 12.3246 49.5238C11.8941 48.2807 11.5484 47.0099 11.2898 45.7201C11.0396 44.4257 10.8735 43.1165 10.7927 41.8007C10.7464 41.2573 10.758 40.8064 10.7407 40.4943C10.7233 40.1821 10.7407 39.9971 10.7407 39.9971C10.7407 39.9971 10.7407 39.8179 10.7407 39.5C10.7407 39.182 10.7407 38.7369 10.7927 38.1935C10.8735 36.8777 11.0396 35.5685 11.2898 34.2742C11.5484 32.9843 11.8941 31.7135 12.3246 30.4704C12.4864 29.9559 12.6599 29.5397 12.7755 29.2507C12.8911 28.9616 12.9547 28.7882 12.9547 28.7882C13.0118 28.6344 13.0774 28.4839 13.1512 28.3373C13.2842 28.0483 13.4576 27.6378 13.6888 27.1522C14.2744 25.9718 14.9327 24.8288 15.6601 23.73C16.3982 22.6357 17.2073 21.591 18.0822 20.6026C18.4233 20.1806 18.7586 19.88 18.9667 19.643L19.3077 19.2846L19.6662 18.9436C19.9032 18.7355 20.2038 18.4002 20.6258 18.0591C21.6141 17.1842 22.6589 16.3751 23.7532 15.637C24.8527 14.9109 25.9956 14.2525 27.1754 13.6657C27.661 13.4287 28.0714 13.2611 28.3604 13.1223C28.6495 12.9836 28.8113 12.9316 28.8113 12.9316L29.268 12.7524C29.5628 12.6367 29.979 12.4633 30.4935 12.3015C31.736 11.8691 33.007 11.5234 34.2973 11.2667C35.5935 11.0161 36.9046 10.85 38.2224 10.7696C38.7542 10.7233 39.2109 10.7349 39.5231 10.7175H40.0202H40.5174C40.8295 10.7175 41.2862 10.7175 41.8238 10.7696C43.1396 10.8504 44.4488 11.0164 45.7432 11.2667C47.0335 11.5234 48.3044 11.8691 49.5469 12.3015C50.0614 12.4633 50.4776 12.6367 50.7724 12.7524L51.2291 12.9316C51.2291 12.9316 51.3968 12.9894 51.68 13.1223C51.9633 13.2553 52.3795 13.4287 52.8651 13.6657C54.0449 14.2525 55.1877 14.9109 56.2873 15.637C57.3823 16.3766 58.4288 17.1857 59.4205 18.0591C59.8367 18.4002 60.1373 18.7355 60.3743 18.9436L60.7327 19.2846L61.0738 19.643C61.2819 19.88 61.6172 20.1806 61.9582 20.6026C62.8331 21.591 63.6422 22.6357 64.3804 23.73C65.1077 24.8288 65.7661 25.9718 66.3516 27.1522C66.5828 27.6378 66.7563 28.0483 66.8892 28.3373C66.963 28.4839 67.0286 28.6344 67.0858 28.7882C67.0858 28.7882 67.1551 28.9558 67.265 29.2507C67.3748 29.5455 67.5598 29.9559 67.7159 30.4704C68.1463 31.7135 68.492 32.9843 68.7506 34.2742C69.0009 35.5685 69.1669 36.8777 69.2478 38.1935C69.294 38.7369 69.2824 39.1878 69.2998 39.5C69.3171 39.8121 69.2998 39.9971 69.2998 39.9971C69.2998 39.9971 69.2998 40.1763 69.2998 40.4943C69.2998 40.8122 69.2998 41.2573 69.2478 41.8007C69.1669 43.1165 69.0009 44.4257 68.7506 45.7201C68.492 47.0099 68.1463 48.2807 67.7159 49.5238C67.5598 50.0383 67.3806 50.4545 67.265 50.7435C67.1494 51.0326 67.0858 51.206 67.0858 51.206C67.0286 51.3598 66.963 51.5104 66.8892 51.6569Z" fill="#A1A1A1"/>
<path d="M39.5024 17C51.9239 17 62 27.0971 62 39.5509C62 52.0015 51.9255 62.105 39.5024 62.105C27.0761 62.105 17 52.0014 17 39.5493C17.0016 27.0955 27.0761 17 39.5024 17ZM60.5737 39.5493C60.5737 27.8563 51.1146 18.3811 39.4491 18.3811C27.7819 18.3811 18.3245 27.8563 18.3245 39.5493C18.3245 51.2439 27.7803 60.7223 39.4491 60.7223C51.1146 60.7223 60.5737 51.2439 60.5737 39.5493Z" fill="#A1A1A1"/>
<path d="M39.5138 59.409C50.4553 59.409 59.3252 50.5174 59.3252 39.5491C59.3252 28.5809 50.4553 19.6893 39.5138 19.6893C28.5722 19.6893 19.7024 28.5809 19.7024 39.5491C19.7024 50.5174 28.5722 59.409 39.5138 59.409Z" fill="#A1A1A1"/>
<path d="M48.435 48.0263V34.1187L39.5025 28.3263L39.4993 28.3166L30.5829 34.1026V48.0085L27.6689 46.0686L27.6997 32.4744L39.4492 24.7356L39.5623 24.755L51.3134 32.4922L51.3457 46.0863L48.435 48.0263Z" fill="white"/>
<path d="M37.5657 33.5081V49.6722L39.5137 51.0177L39.5185 51.0209L41.4456 49.6867V33.5227L44.9863 35.973V50.1875L39.5185 53.7766L39.5137 53.7734L34.0266 50.1713V35.9585L37.5657 33.5081Z" fill="white"/>
</svg>
