<svg width="28" height="28" viewBox="0 0 28 28" fill="none" xmlns="http://www.w3.org/2000/svg">
<path fill-rule="evenodd" clip-rule="evenodd" d="M10.7394 11.1094C11.1104 10.8621 11.3332 10.4458 11.3332 10V4.66669C11.3332 2.45755 9.54231 0.666687 7.33317 0.666687H1.99984C1.26346 0.666687 0.666504 1.26364 0.666504 2.00002C0.666504 15.2549 12.745 27.3334 25.9998 27.3334C26.7362 27.3334 27.3332 26.7364 27.3332 26V20.6667C27.3332 18.4575 25.5423 16.6667 23.3332 16.6667H17.9998C17.554 16.6667 17.1377 16.8895 16.8904 17.2604L14.35 21.0711C11.583 19.282 9.15883 16.9189 7.29416 14.1986L6.92875 13.6499L10.7394 11.1094ZM18.7133 19.3334H23.3331C24.0695 19.3334 24.6664 19.9303 24.6664 20.6667V24.6205C22.0834 24.4417 19.5626 23.7509 17.2114 22.6555L16.6719 22.3955L18.7133 19.3334ZM3.37937 3.33336H7.33314C8.06952 3.33336 8.66648 3.93031 8.66648 4.66669V9.28645L5.60432 11.3279C4.35824 8.82462 3.57186 6.11504 3.37937 3.33336Z" fill="black"/>
</svg>
