<svg width="25" height="25" viewBox="0 0 25 25" fill="none" xmlns="http://www.w3.org/2000/svg">
<path fill-rule="evenodd" clip-rule="evenodd" d="M9.95273 10.2419C10.2425 10.0487 10.4166 9.72345 10.4166 9.37516V5.2085C10.4166 3.48261 9.01748 2.0835 7.29159 2.0835H3.12492C2.54962 2.0835 2.08325 2.54987 2.08325 3.12516C2.08325 13.4805 11.5196 22.9168 21.8749 22.9168C22.4502 22.9168 22.9166 22.4505 22.9166 21.8752V17.7085C22.9166 15.9826 21.5175 14.5835 19.7916 14.5835H15.6249C15.2766 14.5835 14.9514 14.7576 14.7582 15.0474L12.7735 18.0245C10.6118 16.6267 8.71789 14.7806 7.26111 12.6553L6.97563 12.2266L9.95273 10.2419ZM16.1824 16.6668H19.7916C20.3669 16.6668 20.8332 17.1332 20.8332 17.7085V20.7974C18.8153 20.6577 16.8459 20.118 15.009 19.2622L14.5875 19.0591L16.1824 16.6668ZM4.2027 4.16683H7.29158C7.86688 4.16683 8.33325 4.6332 8.33325 5.2085V8.81768L5.94093 10.4126C4.96744 8.45688 4.35307 6.34002 4.2027 4.16683Z" fill="#F15A24"/>
</svg>
