<svg width="26" height="25" viewBox="0 0 26 25" fill="none" xmlns="http://www.w3.org/2000/svg">
<path fill-rule="evenodd" clip-rule="evenodd" d="M25.1217 12.4998C25.1217 19.2666 19.6362 24.7521 12.8695 24.7521C6.10271 24.7521 0.617188 19.2666 0.617188 12.4998C0.617188 5.73308 6.10271 0.247559 12.8695 0.247559C19.6362 0.247559 25.1217 5.73308 25.1217 12.4998ZM19.2463 10.7085C20.2351 10.7085 21.0376 11.511 21.0376 12.4998C21.0376 13.2306 20.5934 13.8612 20.0058 14.1478C20.0345 14.3197 20.0488 14.4917 20.0488 14.678C20.0488 17.4294 16.8532 19.6505 12.8981 19.6505C8.94298 19.6505 5.74736 17.4294 5.74736 14.678C5.74736 14.4917 5.76169 14.3054 5.79035 14.1334C5.15982 13.8468 4.72992 13.2306 4.72992 12.4998C4.72992 11.511 5.53241 10.7085 6.52119 10.7085C6.99408 10.7085 7.43832 10.9091 7.75358 11.2101C8.98597 10.3073 10.6913 9.74841 12.5972 9.69109L13.5 5.42071C13.5286 5.33473 13.5716 5.26308 13.6433 5.22009C13.7149 5.17709 13.8009 5.16277 13.8869 5.1771L16.8532 5.80762C17.0538 5.37772 17.4837 5.09111 17.9853 5.09111C18.6875 5.09111 19.2607 5.66432 19.2607 6.3665C19.2607 7.06867 18.6875 7.64188 17.9853 7.64188C17.2974 7.64188 16.7386 7.09733 16.7099 6.42382L14.0588 5.86494L13.242 9.69109C15.1049 9.76274 16.7959 10.3359 18.014 11.2101C18.3292 10.8948 18.7591 10.7085 19.2463 10.7085ZM10.0607 12.4998C9.35855 12.4998 8.78535 13.073 8.78535 13.7752C8.78535 14.4774 9.35855 15.0506 10.0607 15.0506C10.7629 15.0506 11.3361 14.4774 11.3361 13.7752C11.3361 13.073 10.7629 12.4998 10.0607 12.4998ZM12.8838 18.0742C13.371 18.0742 15.0333 18.0169 15.9074 17.1428C16.0364 17.0138 16.0364 16.8132 15.9361 16.6699C15.8071 16.5409 15.5922 16.5409 15.4632 16.6699C14.9043 17.2144 13.7436 17.415 12.8981 17.415C12.0526 17.415 10.8775 17.2144 10.333 16.6699C10.204 16.5409 9.98908 16.5409 9.86011 16.6699C9.73114 16.7988 9.73114 17.0138 9.86011 17.1428C10.7199 18.0026 12.3965 18.0742 12.8838 18.0742ZM14.4028 13.7752C14.4028 14.4774 14.976 15.0506 15.6781 15.0506C16.3803 15.0506 16.9535 14.4774 16.9535 13.7752C16.9535 13.073 16.3803 12.4998 15.6781 12.4998C14.976 12.4998 14.4028 13.073 14.4028 13.7752Z" fill="#F15A24"/>
</svg>
