<svg width="25" height="25" viewBox="0 0 25 25" fill="none" xmlns="http://www.w3.org/2000/svg">
<path fill-rule="evenodd" clip-rule="evenodd" d="M11.4583 2.08334C16.6359 2.08334 20.8333 6.28067 20.8333 11.4583C20.8333 13.6717 20.0663 15.7058 18.7836 17.3096L22.6115 21.1384C23.0183 21.5452 23.0183 22.2048 22.6115 22.6116C22.236 22.9871 21.6451 23.016 21.2365 22.6982L21.1383 22.6116L17.3095 18.7837C15.7057 20.0664 13.6716 20.8333 11.4583 20.8333C6.28058 20.8333 2.08325 16.636 2.08325 11.4583C2.08325 6.28067 6.28058 2.08334 11.4583 2.08334ZM11.4583 4.16668C7.43118 4.16668 4.16659 7.43127 4.16659 11.4583C4.16659 15.4854 7.43118 18.75 11.4583 18.75C15.4853 18.75 18.7499 15.4854 18.7499 11.4583C18.7499 7.43127 15.4853 4.16668 11.4583 4.16668Z" fill="#000000"/>
</svg>
