<svg width="32" height="32" viewBox="0 0 32 32" fill="none" xmlns="http://www.w3.org/2000/svg">
<path fill-rule="evenodd" clip-rule="evenodd" d="M11.3337 25.3333C12.4383 25.3333 13.3337 26.2288 13.3337 27.3333C13.3337 28.4379 12.4383 29.3333 11.3337 29.3333C10.2292 29.3333 9.33375 28.4379 9.33375 27.3333C9.33375 26.2288 10.2292 25.3333 11.3337 25.3333ZM23.3337 25.3333C24.4383 25.3333 25.3337 26.2288 25.3337 27.3333C25.3337 28.4379 24.4383 29.3333 23.3337 29.3333C22.2292 29.3333 21.3337 28.4379 21.3337 27.3333C21.3337 26.2288 22.2292 25.3333 23.3337 25.3333ZM4.00033 2.66666H6.66699C7.27446 2.66666 7.79807 3.07578 7.95373 3.65031L7.98482 3.79725L8.6314 7.99999H28.0003C28.8 7.99999 29.4069 8.69423 29.3272 9.46712L29.3019 9.62256L27.0993 19.5344C26.7103 21.285 25.2082 22.5524 23.4376 22.6593L23.1945 22.6667H11.6214C9.72613 22.6667 8.10295 21.3391 7.71053 19.5065L7.66796 19.2749L5.5231 5.33332H4.00033C3.26395 5.33332 2.66699 4.73637 2.66699 3.99999C2.66699 3.31621 3.18171 2.75265 3.84483 2.67563L4.00033 2.66666H6.66699H4.00033ZM26.3378 10.6667H9.04125L10.3032 18.8694C10.3956 19.4698 10.8796 19.9251 11.4711 19.9916L11.621 20H23.1941C23.767 20 24.2694 19.6353 24.4536 19.1046L24.4957 18.9559L26.3378 10.6667Z" fill="black"/>
</svg>
