<svg width="25" height="25" viewBox="0 0 25 25" fill="none" xmlns="http://www.w3.org/2000/svg">
<g clip-path="url(#clip0_36_140)">
<path d="M8.20448 22.3288C17.4492 22.3288 22.5071 14.7113 22.5071 8.10745C22.5071 7.8933 22.5023 7.67439 22.4927 7.46024C23.4766 6.75274 24.3257 5.87639 25.0001 4.87238C24.0838 5.27776 23.1109 5.54251 22.1146 5.65759C23.1636 5.03239 23.949 4.05023 24.3253 2.89318C23.3385 3.47468 22.2593 3.88489 21.134 4.10621C20.3758 3.30515 19.3733 2.77475 18.2815 2.59702C17.1897 2.41929 16.0695 2.60413 15.0939 3.12295C14.1184 3.64177 13.3419 4.46569 12.8845 5.46731C12.4272 6.46894 12.3144 7.59248 12.5636 8.66423C10.5654 8.56453 8.61063 8.0484 6.82592 7.14932C5.04122 6.25023 3.46647 4.98826 2.20374 3.4452C1.56196 4.54542 1.36557 5.84734 1.6545 7.08637C1.94342 8.32539 2.69597 9.40854 3.75921 10.1157C2.96099 10.0905 2.18027 9.87679 1.48153 9.49227V9.55413C1.48081 10.7087 1.88225 11.828 2.61761 12.7215C3.35296 13.6151 4.37684 14.2279 5.51521 14.4557C4.77579 14.6569 3.99974 14.6862 3.2471 14.5414C3.56833 15.5344 4.19331 16.4028 5.03484 17.0256C5.87636 17.6484 6.89243 17.9944 7.94125 18.0154C6.16067 19.4061 3.96113 20.1604 1.6969 20.1568C1.29536 20.1562 0.894212 20.1318 0.495605 20.0836C2.79582 21.5509 5.47159 22.3302 8.20448 22.3288Z" fill="#F15A24"/>
</g>
<defs>
<clipPath id="clip0_36_140">
<rect width="24.5045" height="24.3653" fill="white" transform="translate(0.495605 0.247559)"/>
</clipPath>
</defs>
</svg>
