<svg width="32" height="32" viewBox="0 0 32 32" fill="none" xmlns="http://www.w3.org/2000/svg">
<path fill-rule="evenodd" clip-rule="evenodd" d="M9.33317 21.3334H22.6665C26.3484 21.3334 29.3332 24.3181 29.3332 28C29.3332 28.7364 28.7362 29.3334 27.9998 29.3334C27.3161 29.3334 26.7525 28.8186 26.6755 28.1555L26.6597 27.765C26.5426 25.743 24.9235 24.124 22.9015 24.0068L22.6665 24H9.33317C7.12403 24 5.33317 25.7909 5.33317 28C5.33317 28.7364 4.73622 29.3334 3.99984 29.3334C3.26346 29.3334 2.6665 28.7364 2.6665 28C2.6665 24.415 5.49625 21.4909 9.04398 21.3395L9.33317 21.3334H22.6665H9.33317ZM15.9999 2.66669C20.4182 2.66669 23.9999 6.24841 23.9999 10.6667C23.9999 15.085 20.4182 18.6667 15.9999 18.6667C11.5817 18.6667 7.99994 15.085 7.99994 10.6667C7.99994 6.24841 11.5817 2.66669 15.9999 2.66669ZM15.9998 5.33337C13.0543 5.33337 10.6665 7.72118 10.6665 10.6667C10.6665 13.6122 13.0543 16 15.9998 16C18.9454 16 21.3332 13.6122 21.3332 10.6667C21.3332 7.72118 18.9454 5.33337 15.9998 5.33337Z" fill="black"/>
</svg>
